<?xml version="1.0" encoding="utf-8"?>
<!-- Generator: Adobe Illustrator 27.5.0, SVG Export Plug-In . SVG Version: 6.00 Build 0)  -->
<svg version="1.1" xmlns="http://www.w3.org/2000/svg" xmlns:xlink="http://www.w3.org/1999/xlink" x="0px" y="0px"
	 viewBox="0 0 800 800" style="enable-background:new 0 0 800 800;" xml:space="preserve">
<g id="_x39_">
	<g>
		<rect style="fill-rule:evenodd;clip-rule:evenodd;fill:#FAFAFA;" width="800" height="800"/>
		<g>
			<path style="fill-rule:evenodd;clip-rule:evenodd;fill:#425F9C;" d="M261.417,160.488h294.992
				c16.378,0,29.764,13.385,29.764,29.732v294.993c0,16.378-13.386,29.764-29.764,29.764H261.417
				c-16.378,0-29.763-13.386-29.763-29.764V190.22C231.654,173.874,245.039,160.488,261.417,160.488L261.417,160.488z"/>
			<path style="fill-rule:evenodd;clip-rule:evenodd;fill:#FEFEFE;" d="M468.977,304.11v-24.473
				c0-11.905,7.938-14.677,13.543-14.677c5.544,0,34.299,0,34.299,0v-52.41l-47.244-0.22c-52.439,0-64.377,39.118-64.377,64.125
				v27.654h-30.331v61.134h30.582c0,69.323,0,152.913,0,152.913h61.165c0,0,0-84.44,0-152.913h51.055l-0.094-61.134H468.977z"/>
			<path style="fill-rule:evenodd;clip-rule:evenodd;fill:#FBCC18;" d="M304.599,605.056c0,19.023-15.401,34.456-34.425,34.456
				c-19.023,0-34.458-15.433-34.458-34.456c0-19.023,15.434-34.427,34.458-34.427C289.197,570.629,304.599,586.032,304.599,605.056
				L304.599,605.056z"/>
			<path style="fill-rule:evenodd;clip-rule:evenodd;fill:#532814;" d="M259.465,603.858c0.252,0.157,0.535-0.063,0.472-0.347
				c-0.409-2.078-2.425-3.622-4.913-3.622c-2.456,0-4.504,1.544-4.913,3.622c-0.032,0.284,0.251,0.504,0.472,0.347
				c1.26-0.693,2.803-1.134,4.441-1.134C256.693,602.725,258.205,603.165,259.465,603.858L259.465,603.858z"/>
			<path style="fill-rule:evenodd;clip-rule:evenodd;fill:#FEFEFE;" d="M293.197,599.89c0,5.229-4.251,9.479-9.512,9.479
				c-5.228,0-9.48-4.251-9.48-9.479c0-5.26,4.252-9.512,9.48-9.512C288.945,590.378,293.197,594.63,293.197,599.89L293.197,599.89z"
				/>
			<path style="fill-rule:evenodd;clip-rule:evenodd;fill:#532814;" d="M287.37,599.89c0,2.016-1.637,3.685-3.685,3.685
				c-2.016,0-3.685-1.669-3.685-3.685c0-2.047,1.669-3.685,3.685-3.685C285.732,596.204,287.37,597.843,287.37,599.89L287.37,599.89
				z"/>
			<path style="fill-rule:evenodd;clip-rule:evenodd;fill:#532814;" d="M255.087,613.779c-1.355-0.629-2.74,0.914-1.953,2.174
				c3.622,5.89,9.89,9.795,17.04,9.795c7.118,0,13.385-3.905,17.007-9.795c0.788-1.26-0.598-2.803-1.952-2.174
				c-4.347,2.079-9.513,3.308-15.055,3.308C264.63,617.087,259.465,615.858,255.087,613.779L255.087,613.779z"/>
			<path style="fill-rule:evenodd;clip-rule:evenodd;fill:#CA322D;" d="M270.174,618.756c-2.678,0-5.261-0.283-7.717-0.818v10.235
				v1.701v1.638c0,4.252,3.465,7.686,7.717,7.686c4.22,0,7.684-3.434,7.684-7.686v-1.638v-1.701v-10.235
				C275.401,618.473,272.819,618.756,270.174,618.756L270.174,618.756z"/>
			<path style="fill-rule:evenodd;clip-rule:evenodd;fill:#FBCC18;" d="M477.921,605.056c0,19.023-15.401,34.456-34.425,34.456
				s-34.425-15.433-34.425-34.456c0-19.023,15.401-34.427,34.425-34.427S477.921,586.032,477.921,605.056L477.921,605.056z"/>
			<path style="fill-rule:evenodd;clip-rule:evenodd;fill:#CA322D;" d="M464.567,585.307c-5.607-10.708-16.001-3.118-14.205,4.882
				c1.448,6.299,8.347,15.213,8.347,15.213c1.008-0.346,10.614-3.811,15.213-8.347C479.748,591.291,475.056,579.291,464.567,585.307
				L464.567,585.307z"/>
			<path style="fill-rule:evenodd;clip-rule:evenodd;fill:#CA322D;" d="M422.425,585.307c5.607-10.708,16.001-3.118,14.205,4.882
				c-1.448,6.299-8.347,15.213-8.347,15.213c-1.008-0.346-10.614-3.811-15.213-8.347
				C407.244,591.291,411.936,579.291,422.425,585.307L422.425,585.307z"/>
			<path style="fill-rule:evenodd;clip-rule:evenodd;fill:#532814;" d="M430.929,611.984c-0.881-0.284-1.669,0.63-1.417,1.638
				c1.48,5.89,7.149,10.268,13.984,10.268c6.804,0,12.504-4.378,13.984-10.268c0.252-1.008-0.536-1.922-1.417-1.638
				c-3.779,1.26-8.032,1.952-12.567,1.952C438.961,613.937,434.709,613.244,430.929,611.984L430.929,611.984z"/>
			<path style="fill-rule:evenodd;clip-rule:evenodd;fill:#CA322D;" d="M443.496,617.906c-2.992,0-5.575,1.826-6.709,4.439
				c2.016,0.977,4.284,1.544,6.709,1.544s4.693-0.567,6.709-1.544C449.071,619.732,446.488,617.906,443.496,617.906L443.496,617.906
				z"/>
			<path style="fill-rule:evenodd;clip-rule:evenodd;fill:#FBCC18;" d="M737.921,605.056c0,19.023-15.401,34.456-34.425,34.456
				c-19.023,0-34.425-15.433-34.425-34.456c0-19.023,15.401-34.427,34.425-34.427C722.519,570.629,737.921,586.032,737.921,605.056
				L737.921,605.056z"/>
			<path style="fill-rule:evenodd;clip-rule:evenodd;fill:#532814;" d="M726.268,600.614c0.347,0.22,0.819-0.031,0.819-0.44l0,0
				c0-2.521-2.048-4.567-4.536-4.567c-2.519,0-4.566,2.047-4.566,4.567l0,0c0,0.409,0.473,0.66,0.818,0.44
				c1.103-0.662,2.362-1.04,3.748-1.04C723.906,599.574,725.165,599.952,726.268,600.614L726.268,600.614z"/>
			<path style="fill-rule:evenodd;clip-rule:evenodd;fill:#532814;" d="M688.189,600.614c0.346,0.22,0.818-0.031,0.818-0.44l0,0
				c0-2.521-2.047-4.567-4.566-4.567c-2.488,0-4.536,2.047-4.536,4.567l0,0c0,0.409,0.473,0.66,0.819,0.44
				c1.102-0.662,2.362-1.04,3.717-1.04C685.827,599.574,687.087,599.952,688.189,600.614L688.189,600.614z"/>
			<path style="fill-rule:evenodd;clip-rule:evenodd;fill:#532814;" d="M685.89,610.283c-1.102,0.378-1.731,1.574-1.291,2.646
				c2.551,6.488,10.078,11.97,18.898,11.97c8.819,0,16.347-5.481,18.897-11.97c0.44-1.071-0.188-2.268-1.291-2.646
				C710.457,606.692,696.535,606.692,685.89,610.283L685.89,610.283z"/>
			<path style="fill-rule:evenodd;clip-rule:evenodd;fill:#CA322D;" d="M694.016,622.662c2.836,1.385,6.047,2.236,9.481,2.236
				s6.646-0.852,9.48-2.236c-2.614-1.953-5.89-3.15-9.48-3.15C699.905,619.512,696.63,620.709,694.016,622.662L694.016,622.662z"/>
			<path style="fill-rule:evenodd;clip-rule:evenodd;fill:#FBCC18;" d="M564.347,605.056c0,19.023-15.401,34.456-34.425,34.456
				c-19.024,0-34.426-15.433-34.426-34.456c0-19.023,15.401-34.427,34.426-34.427C548.945,570.629,564.347,586.032,564.347,605.056
				L564.347,605.056z"/>
			<path style="fill-rule:evenodd;clip-rule:evenodd;fill:#532814;" d="M529.386,620.929c-0.503,0-0.977-0.378-1.071-0.882
				c-0.094-0.566,0.283-1.134,0.883-1.228c1.165-0.221,3.213-1.229,3.59-2.268c0.095-0.221,0.126-0.504-0.251-0.976
				c-0.726-0.914-2.74,0-3.813,0.786c-0.472,0.348-1.165,0.253-1.511-0.251c-0.347-0.473-0.221-1.134,0.252-1.481
				c2.204-1.607,5.165-2.362,6.74-0.378c0.977,1.229,0.882,2.33,0.599,3.055c-0.819,2.174-3.875,3.37-5.23,3.591L529.386,620.929z"
				/>
			<path style="fill-rule:evenodd;clip-rule:evenodd;fill:#532814;" d="M531.622,626.661c-1.386,0-2.898-0.629-4.157-1.574
				c-0.473-0.348-0.599-1.008-0.252-1.481c0.346-0.472,1.039-0.598,1.511-0.252c1.072,0.819,3.087,1.733,3.813,0.788
				c0.377-0.472,0.346-0.756,0.251-0.977c-0.377-1.039-2.425-2.048-3.59-2.267c-0.6-0.095-0.977-0.63-0.883-1.229
				c0.126-0.566,0.662-0.977,1.26-0.85c1.355,0.222,4.41,1.418,5.23,3.591c0.283,0.725,0.378,1.858-0.599,3.056
				C533.544,626.315,532.63,626.661,531.622,626.661L531.622,626.661z"/>
			<path style="fill-rule:evenodd;clip-rule:evenodd;fill:#532814;" d="M539.371,606.756c-0.442,0-0.852-0.19-1.197-0.504
				c-0.662-0.662-0.662-1.733,0-2.394c2.078-2.048,6.551-3.78,10.33,0c0.662,0.661,0.662,1.731,0,2.394
				c-0.661,0.661-1.732,0.661-2.393,0c-2.709-2.709-5.26-0.284-5.543,0C540.221,606.566,539.811,606.756,539.371,606.756
				L539.371,606.756z"/>
			<path style="fill-rule:evenodd;clip-rule:evenodd;fill:#532814;" d="M520.725,604.047c0,2.614-1.639,4.756-3.653,4.756
				c-2.016,0-3.623-2.142-3.623-4.756c0-2.645,1.607-4.756,3.623-4.756C519.086,599.291,520.725,601.402,520.725,604.047
				L520.725,604.047z"/>
			<path style="fill-rule:evenodd;clip-rule:evenodd;fill:#CA322D;" d="M554.299,616.519c10.111-4.756,13.513,6.646,7.717,11.527
				c-4.566,3.811-14.613,6.552-14.613,6.552c-0.536-0.819-5.701-8.726-6.552-14.615
				C539.779,612.457,549.922,606.252,554.299,616.519L554.299,616.519z"/>
			<path style="fill-rule:evenodd;clip-rule:evenodd;fill:#532814;" d="M509.197,594.725h-0.064
				c-0.536-0.031-0.944-0.505-0.913-1.04c0.189-2.362,1.26-4.63,3.023-6.204c1.732-1.608,4.063-2.52,6.457-2.457
				c0.535,0.032,0.977,0.473,0.944,1.009c0,0.534-0.44,1.007-0.977,0.943c-1.857,0-3.747,0.662-5.133,1.922
				c-1.386,1.26-2.236,3.056-2.362,4.944C510.11,594.347,509.7,594.725,509.197,594.725L509.197,594.725z"/>
			<path style="fill-rule:evenodd;clip-rule:evenodd;fill:#532814;" d="M548.473,599.166c-0.221,0-0.441-0.095-0.63-0.221
				c-2.615-2.174-5.323-2.395-7.811-0.631c-0.441,0.315-1.039,0.221-1.354-0.22c-0.315-0.41-0.221-1.04,0.22-1.355
				c3.182-2.267,6.897-2.016,10.174,0.692c0.44,0.348,0.472,0.945,0.157,1.386C549.008,599.04,548.757,599.166,548.473,599.166
				L548.473,599.166z"/>
			<path style="fill-rule:evenodd;clip-rule:evenodd;fill:#FBCC18;" d="M651.276,605.056c0,19.023-15.435,34.456-34.458,34.456
				c-19.023,0-34.425-15.433-34.425-34.456c0-19.023,15.401-34.427,34.425-34.427C635.842,570.629,651.276,586.032,651.276,605.056
				L651.276,605.056z"/>
			<path style="fill-rule:evenodd;clip-rule:evenodd;fill:#241E12;" d="M622.834,590.819c-2.203,0.724-4.913,0.85-6.016,0.881
				c-1.069-0.031-3.811-0.157-6.016-0.881c-4.188-1.387-10.929-2.267-16.063-2.142c-3.779,0.094-7.717,0.598-10.173,1.102
				c-1.103,0.221-1.796,1.26-1.543,2.362l0.251,1.102c0.158,0.661,0.661,1.166,1.323,1.386c0.315,0.126,0.629,0.314,0.756,0.692
				c0.44,1.197,2.835,8.221,4.126,10.836c1.07,2.109,3.938,3.937,10.582,3.968c9.481,0.031,12.757-6.236,14.268-10.269
				c0.158-0.44,0.379-1.228,0.6-2.015c0.314-1.134,1.008-2.236,1.322-2.394c0.157-0.096,0.378-0.189,0.566-0.189
				c0.222,0,0.441,0.094,0.631,0.189c0.283,0.157,0.945,1.26,1.26,2.394c0.22,0.787,0.473,1.574,0.629,2.015
				c1.513,4.032,4.789,10.3,14.268,10.269c6.646-0.031,9.512-1.858,10.552-3.968c1.291-2.615,3.685-9.639,4.125-10.836
				c0.157-0.378,0.474-0.566,0.788-0.692c0.629-0.22,1.134-0.725,1.291-1.386l0.252-1.102c0.252-1.102-0.44-2.142-1.512-2.362
				c-2.456-0.504-6.394-1.008-10.205-1.102C633.764,588.552,627.023,589.433,622.834,590.819L622.834,590.819z"/>
			<path style="fill-rule:evenodd;clip-rule:evenodd;fill:#463C23;" d="M621.26,597.087c0.221,4.599,4.693,9.008,8.851,10.015
				c6.173,1.513,10.804,0.19,13.417-5.48c0.788-1.701,2.488-5.418,2.362-7.402c-0.188-3.432-4.567-2.834-7.338-2.897
				C638.235,591.322,621.008,590.819,621.26,597.087L621.26,597.087z"/>
			<path style="fill-rule:evenodd;clip-rule:evenodd;fill:#463C23;" d="M612.567,597.087c-0.222,4.599-4.693,9.008-8.851,10.015
				c-6.174,1.513-10.771,0.19-13.417-5.48c-0.788-1.701-2.457-5.418-2.362-7.402c0.188-3.432,4.566-2.834,7.338-2.897
				C595.59,591.322,612.819,590.819,612.567,597.087L612.567,597.087z"/>
			<path style="fill-rule:evenodd;clip-rule:evenodd;fill:#532814;" d="M624.19,622.693c-0.914,0-1.858-0.095-2.804-0.221
				c-0.913-0.158-1.543-1.008-1.417-1.922c0.126-0.913,0.977-1.543,1.922-1.417c5.322,0.787,10.046-1.227,12.063-5.134
				c0.409-0.818,1.417-1.166,2.268-0.725c0.819,0.409,1.134,1.418,0.724,2.268C634.646,620.047,629.796,622.693,624.19,622.693
				L624.19,622.693z"/>
			<path style="fill-rule:evenodd;clip-rule:evenodd;fill:#FBCC18;" d="M391.276,605.056c0,19.023-15.433,34.456-34.457,34.456
				c-19.023,0-34.425-15.433-34.425-34.456c0-19.023,15.401-34.427,34.425-34.427C375.843,570.629,391.276,586.032,391.276,605.056
				L391.276,605.056z"/>
			<path style="fill-rule:evenodd;clip-rule:evenodd;fill:#532814;" d="M376.787,600.614c0.347,0.22,0.819-0.031,0.819-0.44l0,0
				c0-2.521-2.016-4.567-4.536-4.567s-4.567,2.047-4.567,4.567l0,0c0,0.409,0.473,0.66,0.851,0.44
				c1.071-0.662,2.331-1.04,3.716-1.04C374.425,599.574,375.716,599.952,376.787,600.614L376.787,600.614z"/>
			<path style="fill-rule:evenodd;clip-rule:evenodd;fill:#532814;" d="M344.315,600.614c0.346,0.22,0.819-0.031,0.819-0.44l0,0
				c0-2.521-2.016-4.567-4.536-4.567c-2.52,0-4.567,2.047-4.567,4.567l0,0c0,0.409,0.472,0.66,0.85,0.44
				c1.071-0.662,2.331-1.04,3.718-1.04C341.953,599.574,343.244,599.952,344.315,600.614L344.315,600.614z"/>
			<path style="fill-rule:evenodd;clip-rule:evenodd;fill:#532814;" d="M357.008,620.74c-5.764,0-11.465-2.236-15.654-6.11
				c-0.661-0.63-0.692-1.701-0.063-2.362c0.631-0.693,1.702-0.725,2.362-0.094c3.559,3.307,8.441,5.196,13.355,5.196
				c4.756,0,9.48-1.764,13.008-4.882c0.692-0.631,1.763-0.566,2.394,0.126c0.598,0.693,0.535,1.764-0.158,2.393
				C368.063,618.692,362.645,620.74,357.008,620.74L357.008,620.74z"/>
			<path style="fill-rule:evenodd;clip-rule:evenodd;fill:#FBCC18;" d="M217.921,605.056c0,19.023-15.401,34.456-34.425,34.456
				s-34.425-15.433-34.425-34.456c0-19.023,15.401-34.427,34.425-34.427S217.921,586.032,217.921,605.056L217.921,605.056z"/>
			<path style="fill-rule:evenodd;clip-rule:evenodd;fill:#532814;" d="M205.323,602.504c0.346,0.221,0.818,0,0.818-0.441l0,0
				c0-2.519-2.046-4.566-4.536-4.566c-2.52,0-4.566,2.047-4.566,4.566l0,0c0,0.441,0.472,0.662,0.818,0.441
				c1.102-0.661,2.362-1.039,3.748-1.039C202.961,601.465,204.221,601.843,205.323,602.504L205.323,602.504z"/>
			<path style="fill-rule:evenodd;clip-rule:evenodd;fill:#532814;" d="M171.717,602.504c0.346,0.221,0.819,0,0.819-0.441l0,0
				c0-2.519-2.047-4.566-4.536-4.566c-2.52,0-4.567,2.047-4.567,4.566l0,0c0,0.441,0.473,0.662,0.851,0.441
				c1.071-0.661,2.331-1.039,3.716-1.039C169.354,601.465,170.645,601.843,171.717,602.504L171.717,602.504z"/>
			<path style="fill-rule:evenodd;clip-rule:evenodd;fill:#532814;" d="M203.842,592.331c-4.882,0-6.991-3.56-7.433-5.639
				c-0.126-0.598,0.251-1.196,0.851-1.322c0.598-0.126,1.197,0.252,1.354,0.851c0.095,0.472,1.197,4.599,6.646,3.748
				c0.598-0.095,1.165,0.314,1.291,0.913c0.094,0.63-0.347,1.197-0.945,1.292C204.976,592.268,204.41,592.331,203.842,592.331
				L203.842,592.331z"/>
			<path style="fill-rule:evenodd;clip-rule:evenodd;fill:#532814;" d="M165.732,592.331c-0.567,0-1.134-0.064-1.763-0.157
				c-0.599-0.095-1.008-0.662-0.913-1.292c0.094-0.599,0.661-1.008,1.26-0.913c5.606,0.85,6.613-3.56,6.676-3.748
				c0.127-0.599,0.725-0.977,1.324-0.851c0.598,0.126,0.977,0.725,0.85,1.322C172.725,588.771,170.614,592.331,165.732,592.331
				L165.732,592.331z"/>
			<path style="fill-rule:evenodd;clip-rule:evenodd;fill:#532814;" d="M173.228,607.921c-2.015-0.566-4.094,0.945-4.094,3.056
				v0.031c0,8.976,6.645,16.252,14.835,16.252c8.22,0,14.865-7.276,14.865-16.252v-0.031c0-2.11-2.079-3.622-4.094-3.056
				c-3.182,0.882-6.835,1.354-10.771,1.354C180.063,609.275,176.41,608.803,173.228,607.921L173.228,607.921z"/>
			<path style="fill-rule:evenodd;clip-rule:evenodd;fill:#FEFEFE;" d="M183.969,627.26c2.929,0,5.669-0.944,7.968-2.552h-15.905
				C178.331,626.315,181.071,627.26,183.969,627.26L183.969,627.26z"/>
			<path style="fill-rule:evenodd;clip-rule:evenodd;fill:#61C0EC;" d="M214.867,605.182c1.04,0.66,1.857,1.511,2.236,2.708
				c0.346,1.134,0.094,2.551-0.882,3.244c-0.882,0.63-2.11,0.566-3.056,0.064c-1.511-0.852-2.488-2.772-3.086-4.348
				c-0.473-1.291-1.165-2.204-2.173-2.991c-0.251-0.157-0.094-0.536,0.189-0.505C210.236,603.637,212.945,604.016,214.867,605.182
				L214.867,605.182z"/>
			<path style="fill-rule:evenodd;clip-rule:evenodd;fill:#FBCC18;" d="M131.276,605.056c0,19.023-15.433,34.456-34.457,34.456
				c-19.023,0-34.425-15.433-34.425-34.456c0-19.023,15.401-34.427,34.425-34.427C115.843,570.629,131.276,586.032,131.276,605.056
				L131.276,605.056z"/>
			<path style="fill-rule:evenodd;clip-rule:evenodd;fill:#FEFEFE;" d="M111.055,625.118H82.614c-1.826,0-3.274-1.482-3.274-3.308
				v-14.33c0-1.827,1.448-3.308,3.274-3.308h28.441c1.796,0,3.276,1.48,3.276,3.308v14.33
				C114.331,623.637,112.851,625.118,111.055,625.118L111.055,625.118z"/>
			<path style="fill-rule:evenodd;clip-rule:evenodd;fill:#FEFEFE;" d="M113.449,613.559l18.11-9.07v-0.189
				c0-1.165-0.063-2.33-0.189-3.465l-31.717,15.875l29.795,0.472c0.44-1.07,0.788-2.204,1.103-3.339L113.449,613.559z"/>
			<path style="fill-rule:evenodd;clip-rule:evenodd;fill:#FEFEFE;" d="M62.268,600.834c-0.125,1.135-0.188,2.3-0.188,3.465v0.189
				l18.141,9.07l-17.102,0.283c0.283,1.135,0.661,2.269,1.071,3.339l29.826-0.472L62.268,600.834z"/>
			<path style="fill-rule:evenodd;clip-rule:evenodd;fill:#532814;" d="M81.733,599.952c-1.576,0-3.15-0.409-4.504-1.229
				c-0.788-0.472-1.039-1.511-0.567-2.299c0.473-0.787,1.513-1.071,2.299-0.566c1.796,1.071,4.347,0.945,6.016-0.315
				c0.756-0.567,1.827-0.41,2.362,0.346c0.567,0.757,0.41,1.795-0.346,2.362C85.48,599.354,83.59,599.952,81.733,599.952
				L81.733,599.952z"/>
			<path style="fill-rule:evenodd;clip-rule:evenodd;fill:#532814;" d="M111.15,599.952c-1.891,0-3.781-0.598-5.292-1.7
				c-0.724-0.567-0.882-1.606-0.346-2.362c0.566-0.756,1.606-0.913,2.362-0.346c1.7,1.26,4.22,1.386,6.016,0.315
				c0.819-0.505,1.826-0.221,2.331,0.566c0.472,0.788,0.189,1.827-0.599,2.299C114.268,599.543,112.693,599.952,111.15,599.952
				L111.15,599.952z"/>
		</g>
	</g>
</g>
<g id="Layer_1">
</g>
</svg>
